<?xml version="1.0" standalone="no"?>
<!DOCTYPE svg PUBLIC "-//W3C//DTD SVG 20010904//EN"
 "http://www.w3.org/TR/2001/REC-SVG-20010904/DTD/svg10.dtd">
<svg version="1.0" xmlns="http://www.w3.org/2000/svg"
 width="213.000000pt" height="213.000000pt" viewBox="0 0 213.000000 213.000000"
 preserveAspectRatio="xMidYMid meet">
<metadata>
Created by potrace 1.14, written by Peter Selinger 2001-2017
</metadata>
<g transform="translate(0.000000,213.000000) scale(0.100000,-0.100000)"
fill="#000000" stroke="none">
<path d="M370 1419 c-30 -5 -78 -21 -106 -34 -51 -25 -144 -109 -144 -131 0
-16 39 -62 40 -46 1 33 120 122 193 143 37 10 43 24 -109 -249 l-126 -227 60
-56 c68 -64 134 -94 231 -105 l61 -7 0 30 c0 29 -2 30 -56 37 -89 10 -196 65
-209 107 -4 13 40 102 138 278 80 143 142 262 139 265 -7 8 -44 6 -112 -5z"/>
<path d="M1650 1298 c0 -92 4 -139 13 -150 6 -9 59 -30 116 -47 58 -17 113
-38 123 -48 15 -13 18 -31 18 -98 0 -72 -3 -84 -22 -102 -28 -26 -91 -57 -140
-71 l-38 -10 -1 61 c0 34 -4 82 -7 107 -6 40 -10 45 -34 48 l-28 3 0 -142 0
-142 65 6 c76 7 152 37 218 86 l47 35 0 116 c0 102 -2 119 -20 137 -20 22 -98
55 -177 74 -71 17 -73 21 -73 117 l0 85 42 -7 c49 -8 124 -40 150 -63 12 -11
18 -31 18 -63 0 -43 3 -48 25 -52 25 -5 25 -4 25 63 l0 67 -50 37 c-58 42
-132 70 -212 80 l-58 7 0 -134z"/>
<path d="M547 1323 c-4 -54 -7 -212 -7 -352 l0 -254 41 7 c23 4 74 22 113 40
71 33 196 119 196 134 0 5 -6 16 -13 26 -13 17 -17 16 -76 -28 -54 -40 -176
-106 -195 -106 -3 0 -6 56 -6 125 l0 125 130 0 130 0 0 30 0 30 -130 0 -130 0
0 113 c0 63 3 116 6 120 9 9 131 -55 194 -102 30 -22 58 -41 62 -41 8 0 28 34
28 48 0 12 -102 83 -170 117 -42 21 -153 65 -165 65 -1 0 -5 -44 -8 -97z"/>
<path d="M1537 1403 c-4 -3 -7 -141 -7 -305 0 -197 -3 -298 -10 -298 -14 0
-148 68 -182 92 l-28 19 0 190 0 190 -30 -21 -30 -21 0 -183 0 -183 59 -42
c71 -50 191 -107 244 -116 l37 -6 0 346 0 345 -23 0 c-13 0 -27 -3 -30 -7z"/>
<path d="M934 1187 c-4 -12 10 -31 48 -67 l53 -50 -53 -51 c-33 -32 -51 -57
-48 -66 5 -11 23 0 70 42 l64 56 61 -57 c51 -47 62 -53 67 -39 5 13 -8 31 -47
66 l-54 49 54 49 c40 36 52 53 47 66 -5 15 -16 8 -67 -40 -68 -65 -55 -67
-146 19 -35 33 -43 37 -49 23z"/>
<path d="M71 1167 c-12 -30 -13 -147 -3 -185 15 -53 27 -17 27 84 0 114 -7
145 -24 101z"/>
<path d="M2039 1178 c-8 -27 -4 -213 5 -218 16 -9 28 62 24 138 -5 69 -20 111
-29 80z"/>
</g>
</svg>
